<?xml version="1.0" encoding="UTF-8"?>
<svg id="Layer_2" data-name="Layer 2" xmlns="http://www.w3.org/2000/svg" viewBox="0 0 474.51 137.97">
  <defs>
    <style>
      .cls-1 {
        fill: #d4e1e5;
      }
    </style>
  </defs>
  <g id="Layer_1-2" data-name="Layer 1">
    <g>
      <g>
        <path class="cls-1" d="M120.77,36.98h48.8v10.13h-37.08v16h30.11v9.57h-30.11v17.48h37.15v10.13h-48.88v-63.32Z"/>
        <path class="cls-1" d="M174.52,51.79h10.13v7.13l.19.19c1.63-2.69,3.75-4.8,6.38-6.33,2.63-1.53,5.54-2.3,8.73-2.3,5.32,0,9.51,1.38,12.57,4.13,3.06,2.75,4.6,6.88,4.6,12.38v33.31h-10.7v-30.49c-.13-3.81-.94-6.58-2.44-8.3-1.5-1.72-3.85-2.58-7.04-2.58-1.81,0-3.44.33-4.88.99-1.44.66-2.66,1.56-3.66,2.72-1,1.16-1.78,2.52-2.35,4.08-.56,1.56-.84,3.22-.84,4.97v28.62h-10.7v-48.5Z"/>
        <path class="cls-1" d="M249.12,59.77v-7.97h-9.66s-3.85,0-3.85,0l3.85-3.85v-10.7h-10.7v14.54h-8.07v7.97h8.07v28.62c.06,2,.27,3.78.61,5.35.34,1.56,1,2.86,1.97,3.89.97,1.03,2.31,1.81,4.03,2.35,1.72.53,3.99.8,6.8.8,1.19,0,2.35-.06,3.47-.19,1.13-.13,2.28-.25,3.47-.38v-8.26c-.75.19-1.5.3-2.25.33-.75.03-1.5.05-2.25.05-1.19,0-2.13-.14-2.81-.42-.69-.28-1.21-.7-1.55-1.27-.34-.56-.56-1.25-.66-2.06-.09-.81-.14-1.78-.14-2.91v-25.89h9.66Z"/>
        <path class="cls-1" d="M297.37,100.3h-10.51v-6.76h-.19c-1.31,2.44-3.27,4.39-5.86,5.86-2.6,1.47-5.24,2.2-7.93,2.2-6.38,0-10.99-1.58-13.84-4.74-2.85-3.16-4.27-7.93-4.27-14.31v-30.77h10.7v29.74c0,4.25.81,7.26,2.44,9.01,1.63,1.75,3.91,2.63,6.85,2.63,2.25,0,4.13-.34,5.63-1.03,1.5-.69,2.72-1.61,3.66-2.77.94-1.16,1.61-2.55,2.02-4.17.41-1.63.61-3.38.61-5.25v-28.15h10.7v48.5Z"/>
        <path class="cls-1" d="M304.66,51.79h10.13v7.13l.19.19c1.63-2.69,3.75-4.8,6.38-6.33,2.63-1.53,5.54-2.3,8.73-2.3,5.32,0,9.51,1.38,12.57,4.13,3.06,2.75,4.6,6.88,4.6,12.38v33.31h-10.7v-30.49c-.13-3.81-.94-6.58-2.44-8.3-1.5-1.72-3.85-2.58-7.04-2.58-1.81,0-3.44.33-4.88.99-1.44.66-2.66,1.56-3.66,2.72-1,1.16-1.78,2.52-2.35,4.08-.56,1.56-.84,3.22-.84,4.97v28.62h-10.7v-48.5Z"/>
        <path class="cls-1" d="M363.54,78.81c0,1.88.27,3.69.8,5.44.53,1.75,1.33,3.28,2.39,4.6,1.06,1.31,2.41,2.36,4.03,3.14,1.63.78,3.57,1.17,5.82,1.17,3.13,0,5.64-.67,7.55-2.02,1.91-1.34,3.33-3.36,4.27-6.05h10.13c-.56,2.63-1.53,4.97-2.91,7.04-1.38,2.06-3.03,3.8-4.97,5.21-1.94,1.41-4.11,2.47-6.52,3.19-2.41.72-4.93,1.08-7.55,1.08-3.82,0-7.19-.63-10.13-1.88-2.94-1.25-5.43-3-7.46-5.25-2.03-2.25-3.57-4.94-4.6-8.07-1.03-3.13-1.55-6.57-1.55-10.32,0-3.44.55-6.71,1.64-9.8,1.09-3.1,2.66-5.82,4.69-8.16,2.03-2.35,4.49-4.21,7.36-5.58,2.88-1.38,6.13-2.06,9.76-2.06,3.81,0,7.24.8,10.27,2.39,3.03,1.59,5.55,3.71,7.55,6.33,2,2.63,3.46,5.65,4.36,9.05.91,3.41,1.14,6.93.7,10.55h-35.65ZM388.5,71.77c-.13-1.69-.49-3.31-1.08-4.88-.6-1.56-1.41-2.92-2.44-4.08-1.03-1.16-2.28-2.09-3.75-2.81-1.47-.72-3.11-1.08-4.93-1.08s-3.58.33-5.11.99c-1.53.66-2.85,1.56-3.94,2.72-1.1,1.16-1.97,2.52-2.63,4.08-.66,1.56-1.02,3.25-1.08,5.07h24.96Z"/>
        <path class="cls-1" d="M452.17,100.3h-10.13v-6.57h-.19c-1.44,2.81-3.53,4.83-6.29,6.05-2.75,1.22-5.66,1.83-8.73,1.83-3.82,0-7.15-.67-9.99-2.02-2.85-1.34-5.21-3.17-7.08-5.49-1.88-2.31-3.28-5.05-4.22-8.21-.94-3.16-1.41-6.55-1.41-10.18,0-4.38.59-8.16,1.78-11.35,1.19-3.19,2.77-5.82,4.74-7.88s4.22-3.58,6.76-4.55c2.53-.97,5.11-1.45,7.74-1.45,1.5,0,3.03.14,4.6.42,1.56.28,3.06.74,4.5,1.36,1.44.63,2.77,1.42,3.99,2.39,1.22.97,2.24,2.11,3.05,3.42h.19v-21.1h10.7v63.32ZM414.83,76.56c0,2.06.27,4.1.8,6.1.53,2,1.34,3.79,2.44,5.35,1.09,1.56,2.49,2.81,4.17,3.75,1.69.94,3.69,1.41,6,1.41s4.42-.5,6.15-1.5c1.72-1,3.13-2.31,4.22-3.94,1.09-1.63,1.91-3.46,2.44-5.49.53-2.03.8-4.11.8-6.24,0-5.38-1.21-9.57-3.61-12.57-2.41-3-5.68-4.5-9.8-4.5-2.5,0-4.61.52-6.33,1.55-1.72,1.03-3.13,2.38-4.22,4.03-1.1,1.66-1.88,3.53-2.35,5.63-.47,2.1-.7,4.24-.7,6.43Z"/>
      </g>
      <g>
        <path class="cls-1" d="M46.22,137.97c-1.62,0-3.05-1.17-3.33-2.82-.76-4.5-1.37-8.78-1.77-12.93-.26,0-.53,0-.79-.01-7.62-.18-13.1-2.23-16.77-6.26-2.83-3.08-4.14-6.94-3.87-11.48.18-3.14,1.12-6.62,2.87-10.64.57-1.33,1.15-2.59,1.7-3.82l.45-.98c.86-1.83,1.94-4.11,4.16-5.66l.05-.03c2.92-1.97,6.27-1.52,8.72-1.19.31.04.62.08.92.12l.52.06c2.01.25,3.76.47,4.92-.06,1.54-1.52,2.57-5.36,2.76-10.4.2-5.22-.5-10.63-1.28-13.67-.57-2.18-1.38-2.45-1.82-2.59-1.29-.43-3.49-.16-5.46.15l-.15.02c-.26.03-.52.06-.78.09-2.03.25-4.56.56-7.13-.57-2.72-1.22-4.15-3.67-5.09-5.68l-.03-.06c-.3-.69-.62-1.38-.96-2.12-2.89-6.3-6.49-14.13-2.94-21.72l.04-.08c3.9-7.76,11.71-9.82,19.97-9.85.41-4.41,1.06-8.74,1.78-12.97.31-1.84,2.06-3.08,3.9-2.76,1.84.31,3.08,2.06,2.76,3.9-.78,4.56-1.31,8.6-1.65,12.19,2.88.28,5.69.69,8.3,1.07,1.17.17,2.27.33,3.34.47,6.88.92,11.45,5.49,12.24,12.23.47,3.96-.37,8.02-2.35,11.42l-.02.04c-2.73,4.55-7.71,8.07-13.65,9.67-2.63.76-5.3.53-7.49-.55,1.62,1.19,2.97,3.08,3.74,6.02.84,3.27,1.73,9.31,1.49,15.62-.28,7.33-1.99,12.46-5.09,15.26,2.04-.98,4.48-1.19,7.04-.54,3.9.99,7.59,2.94,10.39,5.49,3.26,2.97,5.28,6.66,5.84,10.68,1.18,6.75-1.88,14.92-9.92,16.84l-.13.03-.14.02c-.98.15-2.01.32-3.06.49-3.33.54-6.93,1.13-10.56,1.48.38,3.89.96,7.92,1.67,12.15.31,1.84-.93,3.58-2.77,3.89-.19.03-.38.05-.56.05ZM30.79,91.99l-.38.83c-.57,1.24-1.1,2.41-1.64,3.67v.02c-4.01,9.19-2.05,12.88-.23,14.86l.02.02c2.65,2.92,7.12,3.95,12.12,4.05-.23-7.2.38-14.09,2.28-21.07l.05-.18c.32-.96.89-2.38,1.78-3.64.55-.81,1.19-1.5,1.91-2.08-2.86,1.27-5.82.9-8.47.56l-.48-.06c-.32-.04-.66-.08-1.01-.13-1.58-.21-3.22-.43-4.02.09-.74.53-1.33,1.78-1.9,2.99l-.03.07ZM49.46,96.24c-1.67,6.18-2.22,12.37-2.02,18.89,3.43-.34,6.85-.9,9.93-1.4,1.02-.16,2-.33,2.96-.47,3.94-1.02,5.37-5.44,4.71-9.11l-.02-.15c-.75-5.55-6.17-9.32-11.2-10.6-1.58-.4-2.73-.08-3.43.96l-.04.06c-.32.45-.63,1.09-.88,1.82ZM41.76,48.63c1.73,0,3.56.25,5.23,1.07-.58-.43-1.12-.93-1.58-1.5-.96-1.12-1.72-2.49-2.34-4.2l-.05-.13-.04-.13c-1.94-7.13-2.5-14.24-2.29-21.21-.97.01-1.92.06-2.84.15-5.47.53-8.85,2.42-10.64,5.95-2.18,4.74.44,10.46,2.98,15.99.33.71.67,1.45.98,2.17.25.53.96,2.01,1.7,2.34.81.36,1.88.25,3.56.04.26-.03.51-.06.77-.09,1.22-.19,2.83-.44,4.54-.44ZM49.46,41.83c.33.88.68,1.53,1.09,2l.08.09c.71.88,2.16.94,3.28.61l.08-.02c4.21-1.12,7.8-3.59,9.62-6.61,1.24-2.14,1.76-4.7,1.46-7.21-.43-3.68-2.59-5.8-6.43-6.32-1.11-.15-2.22-.31-3.41-.48-2.5-.36-5.14-.74-7.78-1.01-.28,8.61.73,14.23,2,18.95Z"/>
        <path class="cls-1" d="M22.6,85.58c-1.53,0-3.05-.22-4.42-.47-.41-.07-.83-.14-1.24-.21-1.91-.32-3.89-.64-5.89-1.35C4.82,81.37.28,75.45,0,69.14c0-.08,0-.15,0-.22H0s0,0,0,0c0-.02,0-.05,0-.07.28-6.67,5.16-12.71,11.88-14.68,1.85-.56,3.7-.86,5.49-1.15.47-.08.95-.15,1.42-.24h.04c2.74-.45,7.32-1.18,10.62,2.09l.05.05c1.23,1.28,2.89,3.93,3.01,12.23.07,4.4-.34,9.02-.77,11.32-.55,3.04-2.13,4.69-3.37,5.55-1.72,1.19-3.75,1.57-5.77,1.57ZM6.76,68.98c.22,3.51,2.94,6.94,6.52,8.18h.03c1.43.52,3.03.78,4.73,1.07.45.07.89.15,1.33.22h.03c3.33.63,4.62.35,5.12,0,.1-.07.4-.28.56-1.19v-.03c.35-1.83.7-5.85.66-9.67-.06-6.04-.99-7.73-1.13-7.95-.83-.72-2.78-.48-4.72-.17-.49.08-.98.16-1.47.24-1.65.27-3.2.52-4.64.95-3.89,1.15-6.82,4.64-7.05,8.35ZM24.61,59.58h0s0,0,0,0Z"/>
      </g>
      <path class="cls-1" d="M464.48,38.19h-2.34v6.44h-1.49v-6.44h-2.34v-1.21h6.17v1.21ZM470.3,42.4l2.08-5.42h2.14v7.65h-1.39v-5.98h-.04l-2.28,5.98h-1.04l-2.28-5.98h-.04v5.98h-1.39v-7.65h2.15l2.1,5.42Z"/>
    </g>
  </g>
</svg>